<svg xmlns="http://www.w3.org/2000/svg" xmlns:xlink="http://www.w3.org/1999/xlink" version="1.1" width="940" height="788" viewBox="0 0 940 788" xml:space="preserve">
<desc>Created with Fabric.js 3.5.0</desc>
<defs>
</defs>
<rect x="0" y="0" width="100%" height="100%" fill="rgba(255,255,255,0)"/>
<g transform="matrix(1.3873 0 0 1.3873 430.2935 393.9958)" id="776023">
<path style="stroke: none; stroke-width: 1; stroke-dasharray: none; stroke-linecap: butt; stroke-dashoffset: 0; stroke-linejoin: miter; stroke-miterlimit: 4; is-custom-font: none; font-file-url: none; fill: rgb(0,0,0); fill-rule: nonzero; opacity: 1;" vector-effect="non-scaling-stroke" transform=" translate(-241.55, -241.55)" d="M 434.55 418.7 l -27.8 -313.3 c -0.5 -6.2 -5.7 -10.9 -12 -10.9 h -58.6 c -0.1 -52.1 -42.5 -94.5 -94.6 -94.5 s -94.5 42.4 -94.6 94.5 h -58.6 c -6.2 0 -11.4 4.7 -12 10.9 l -27.8 313.3 c 0 0.4 0 0.7 0 1.1 c 0 34.9 32.1 63.3 71.5 63.3 h 243 c 39.4 0 71.5 -28.4 71.5 -63.3 C 434.55 419.4 434.55 419.1 434.55 418.7 z M 241.55 24 c 38.9 0 70.5 31.6 70.6 70.5 h -141.2 C 171.05 55.6 202.65 24 241.55 24 z M 363.05 459 h -243 c -26 0 -47.2 -17.3 -47.5 -38.8 l 26.8 -301.7 h 47.6 v 42.1 c 0 6.6 5.4 12 12 12 s 12 -5.4 12 -12 v -42.1 h 141.2 v 42.1 c 0 6.6 5.4 12 12 12 s 12 -5.4 12 -12 v -42.1 h 47.6 l 26.8 301.8 C 410.25 441.7 389.05 459 363.05 459 z" stroke-linecap="round"/>
</g>
<g transform="matrix(3.1816 0 0 1.8435 637.838 542.9047)" id="315602">
<path style="stroke: rgb(216,46,46); stroke-width: 1; stroke-dasharray: none; stroke-linecap: butt; stroke-dashoffset: 0; stroke-linejoin: miter; stroke-miterlimit: 4; is-custom-font: none; font-file-url: none; fill: rgb(216,46,46); fill-rule: nonzero; opacity: 1;" vector-effect="non-scaling-stroke" transform=" translate(-46.5001, -78.5)" d="M 2.6167 78.5 C 2.6167 57.2341 7.7391 38.064 15.8764 24.2946 C 24.0482 10.4665 34.9664 2.5 46.5001 2.5 C 58.0338 2.5 68.952 10.4665 77.1238 24.2946 C 85.2611 38.064 90.3835 57.2341 90.3835 78.5 C 90.3835 99.7659 85.2611 118.936 77.1238 132.705 C 68.952 146.533 58.0338 154.5 46.5001 154.5 C 34.9664 154.5 24.0482 146.533 15.8764 132.705 C 7.7391 118.936 2.6167 99.7659 2.6167 78.5 Z" stroke-linecap="round"/>
</g>
</svg>