<svg xmlns="http://www.w3.org/2000/svg" xmlns:xlink="http://www.w3.org/1999/xlink" version="1.1" width="1000" height="1000" viewBox="0 0 1000 1000" xml:space="preserve">
<desc>Created with Fabric.js 3.5.0</desc>
<defs>
</defs>
<rect x="0" y="0" width="100%" height="100%" fill="rgba(255,255,255,0)"/>
<g transform="matrix(0 1.3317 -1.3317 0 499.9919 500.0081)" id="41348">
<g style="" vector-effect="non-scaling-stroke">
		<g transform="matrix(0.1333 0 0 -0.1333 -0.0853 -0.0679)" id="551300">
<path style="stroke: none; stroke-width: 1; stroke-dasharray: none; stroke-linecap: butt; stroke-dashoffset: 0; stroke-linejoin: miter; stroke-miterlimit: 4; is-custom-font: none; font-file-url: none; fill: rgb(0,0,0); fill-rule: nonzero; opacity: 1;" transform=" translate(-2560, -2560.0235)" d="M 410 4499 c -221 -28 -410 -239 -410 -459 c 0 -73 15 -115 113 -308 c 92 -182 92 -183 91 -255 c -1 -60 -12 -105 -68 -277 c -121 -370 -150 -541 -128 -757 c 15 -151 36 -234 127 -522 c 53 -166 75 -249 75 -285 c 0 -59 -36 -148 -119 -297 c -90 -162 -107 -243 -76 -362 c 61 -234 288 -388 524 -356 c 32 5 156 38 274 74 c 351 106 401 117 507 119 c 107 1 138 -10 293 -103 c 211 -126 338 -126 606 1 c 287 135 391 140 586 23 c 179 -107 253 -129 386 -113 c 71 9 151 36 384 132 c 170 70 197 74 318 47 c 56 -13 218 -56 360 -97 c 288 -82 356 -94 454 -82 c 223 26 413 237 413 458 c 0 73 -15 115 -113 308 c -91 181 -92 183 -91 255 c 0 59 11 104 59 252 c 119 370 152 533 142 715 c -8 148 -37 277 -123 548 c -94 294 -99 337 -55 442 c 17 41 56 120 87 175 c 93 169 110 248 79 368 c -61 234 -287 388 -523 356 c -31 -5 -156 -40 -277 -79 c -299 -97 -410 -124 -515 -124 c -97 -1 -137 15 -304 119 c -106 66 -174 88 -268 87 c -94 -1 -157 -21 -338 -107 c -289 -138 -358 -138 -580 -5 c -162 97 -209 114 -315 112 c -100 -1 -169 -22 -391 -118 c -241 -103 -239 -103 -382 -69 c -64 15 -205 54 -312 87 c -327 99 -385 110 -490 97 z m 160 -215 c 36 -8 173 -48 305 -89 c 277 -86 360 -105 454 -105 c 92 0 161 20 341 99 c 170 75 275 111 325 111 c 50 0 100 -21 218 -93 c 164 -100 198 -111 347 -112 c 148 0 183 10 413 117 c 244 114 273 114 464 -2 c 174 -106 202 -114 363 -114 c 158 0 203 10 555 124 c 121 40 243 74 271 77 c 102 11 210 -51 259 -148 c 43 -84 37 -111 -69 -328 c -145 -296 -147 -340 -31 -689 c 108 -323 120 -378 120 -572 c 0 -193 -12 -252 -119 -580 c -118 -360 -117 -380 34 -685 c 76 -151 90 -188 90 -228 c 0 -96 -81 -199 -183 -233 c -83 -27 -105 -23 -582 118 c -164 48 -265 68 -355 68 c -95 0 -155 -18 -410 -124 c -230 -95 -286 -97 -422 -14 c -198 120 -269 142 -433 135 c -129 -6 -174 -19 -384 -114 c -237 -107 -270 -107 -451 0 c -254 150 -407 155 -823 25 c -256 -80 -358 -108 -397 -108 c -130 0 -260 122 -260 244 c 0 36 18 81 94 234 c 146 296 147 329 31 682 c -87 262 -114 370 -124 492 c -14 184 24 394 124 673 c 55 154 85 273 85 335 c 0 79 -28 160 -120 345 c -76 151 -90 188 -90 228 c 0 124 124 244 255 246 c 22 0 69 -6 105 -15 z" stroke-linecap="round"/>
</g>
		<g transform="matrix(0.1333 0 0 -0.1333 -0.0648 0.0056)" id="885303">
<path style="stroke: none; stroke-width: 1; stroke-dasharray: none; stroke-linecap: butt; stroke-dashoffset: 0; stroke-linejoin: miter; stroke-miterlimit: 4; is-custom-font: none; font-file-url: none; fill: rgb(0,0,0); fill-rule: nonzero; opacity: 1;" transform=" translate(-2560, -2559.625)" d="M 745 3878 c -51 -18 -82 -46 -107 -96 l -23 -47 l 0 -1175 l 0 -1175 l 23 -47 c 25 -51 56 -78 111 -96 c 49 -17 3573 -17 3622 0 c 55 18 86 45 111 96 l 23 47 l 0 1175 l 0 1175 l -23 47 c -25 51 -56 78 -111 96 c -46 16 -3582 16 -3626 0 z m 3555 -1318 l 0 -1130 l -1740 0 l -1740 0 l 0 1130 l 0 1130 l 1740 0 l 1740 0 l 0 -1130 z" stroke-linecap="round"/>
</g>
</g>
</g>
<g transform="matrix(0.9821 0.1885 -0.1885 0.9821 675.2008 510.715)" id="774982">
<path style="stroke: none; stroke-width: 0; stroke-dasharray: none; stroke-linecap: butt; stroke-dashoffset: 0; stroke-linejoin: miter; stroke-miterlimit: 4; is-custom-font: none; font-file-url: none; fill: rgb(0,0,0); fill-rule: nonzero; opacity: 1;" vector-effect="non-scaling-stroke" transform=" translate(-303.934, -255.9841)" d="M 339.3 367.1 c 27.3 -3.9 51.9 -19.4 67.2 -42.9 L 568.2 74.1 c 12.6 -19.5 9.4 -45.3 -7.6 -61.2 S 517.7 -4.4 499.1 9.6 L 262.4 187.2 c -24 18 -38.2 46.1 -38.4 76.1 L 339.3 367.1 z m -19.6 25.4 l -116 -104.4 C 143.9 290.3 96 339.6 96 400 c 0 3.9 0.2 7.8 0.6 11.6 C 98.4 429.1 86.4 448 68.8 448 H 64 c -17.7 0 -32 14.3 -32 32 s 14.3 32 32 32 H 208 c 61.9 0 112 -50.1 112 -112 c 0 -2.5 -0.1 -5 -0.2 -7.5 z" stroke-linecap="round"/>
</g>
</svg>