<svg xmlns="http://www.w3.org/2000/svg" xmlns:xlink="http://www.w3.org/1999/xlink" version="1.1" width="256" height="256" viewBox="0 0 256 256" xml:space="preserve">

<defs>
</defs>
<g style="stroke: line; stroke-width: 0; stroke-dasharray: none; stroke-linecap: butt; stroke-linejoin: miter; stroke-miterlimit: 10; fill: none; fill-rule: nonzero; opacity: 1;" transform="translate(1.4065934065934016 1.4065934065934016) scale(2.81 2.81)" >
	<path d="M 45 90 c -0.472 0 -0.879 -0.33 -0.978 -0.791 l -7.601 -35.63 L 0.792 45.978 C 0.33 45.879 0 45.472 0 45 s 0.33 -0.879 0.792 -0.978 l 35.629 -7.601 l 7.601 -35.629 C 44.121 0.33 44.528 0 45 0 s 0.879 0.33 0.978 0.792 l 7.601 35.629 l 35.63 7.601 C 89.67 44.121 90 44.528 90 45 s -0.33 0.879 -0.791 0.978 l -35.63 7.601 l -7.601 35.63 C 45.879 89.67 45.472 90 45 90 z M 5.793 45 l 31.679 6.759 c 0.386 0.082 0.687 0.383 0.77 0.769 L 45 84.207 l 6.759 -31.68 c 0.082 -0.386 0.383 -0.687 0.769 -0.769 L 84.207 45 l -31.68 -6.758 c -0.386 -0.083 -0.687 -0.384 -0.769 -0.77 L 45 5.793 l -6.758 31.679 c -0.083 0.386 -0.384 0.687 -0.77 0.77 L 5.793 45 z" style="stroke: none; stroke-width: 1; stroke-dasharray: none; stroke-linecap: butt; stroke-linejoin: miter; stroke-miterlimit: 10; fill: #fff; fill-rule: nonzero; opacity: 1;" transform=" matrix(1 0 0 1 0 0) " stroke-linecap="round" />
	<path d="M 59.956 39.804 c -0.187 0 -0.375 -0.052 -0.543 -0.161 c -0.464 -0.3 -0.596 -0.919 -0.295 -1.383 l 13.604 -20.984 L 51.739 30.881 c -0.463 0.301 -1.082 0.169 -1.383 -0.295 c -0.301 -0.463 -0.169 -1.083 0.295 -1.383 l 24.917 -16.155 c 0.396 -0.256 0.916 -0.203 1.251 0.132 c 0.334 0.333 0.389 0.855 0.132 1.251 L 60.796 39.348 C 60.604 39.644 60.283 39.804 59.956 39.804 z" style="stroke: none; stroke-width: 1; stroke-dasharray: none; stroke-linecap: butt; stroke-linejoin: miter; stroke-miterlimit: 10; fill: #fff; fill-rule: nonzero; opacity: 1;" transform=" matrix(1 0 0 1 0 0) " stroke-linecap="round" />
	<path d="M 76.112 77.112 c -0.188 0 -0.377 -0.053 -0.544 -0.161 L 50.651 60.796 c -0.464 -0.3 -0.596 -0.92 -0.295 -1.383 s 0.92 -0.596 1.383 -0.295 l 20.983 13.604 L 59.118 51.739 c -0.301 -0.463 -0.169 -1.083 0.295 -1.383 c 0.463 -0.301 1.082 -0.17 1.383 0.295 l 16.155 24.917 c 0.257 0.396 0.202 0.917 -0.132 1.251 C 76.626 77.013 76.37 77.112 76.112 77.112 z" style="stroke: none; stroke-width: 1; stroke-dasharray: none; stroke-linecap: butt; stroke-linejoin: miter; stroke-miterlimit: 10; fill: #fff; fill-rule: nonzero; opacity: 1;" transform=" matrix(1 0 0 1 0 0) " stroke-linecap="round" />
	<path d="M 13.888 77.112 c -0.258 0 -0.515 -0.1 -0.708 -0.293 c -0.334 -0.334 -0.389 -0.855 -0.132 -1.251 l 16.155 -24.917 c 0.3 -0.464 0.918 -0.597 1.383 -0.295 c 0.463 0.3 0.596 0.92 0.295 1.383 L 17.276 72.723 L 38.26 59.118 c 0.463 -0.303 1.082 -0.17 1.383 0.295 c 0.301 0.463 0.168 1.083 -0.295 1.383 L 14.431 76.951 C 14.265 77.06 14.075 77.112 13.888 77.112 z" style="stroke: none; stroke-width: 1; stroke-dasharray: none; stroke-linecap: butt; stroke-linejoin: miter; stroke-miterlimit: 10; fill: #fff; fill-rule: nonzero; opacity: 1;" transform=" matrix(1 0 0 1 0 0) " stroke-linecap="round" />
	<path d="M 30.043 39.804 c -0.328 0 -0.648 -0.161 -0.84 -0.456 L 13.048 14.431 c -0.257 -0.396 -0.202 -0.917 0.132 -1.251 c 0.333 -0.334 0.856 -0.389 1.251 -0.132 l 24.917 16.155 c 0.463 0.3 0.596 0.919 0.295 1.383 c -0.301 0.463 -0.92 0.595 -1.383 0.295 L 17.276 17.276 L 30.881 38.26 c 0.301 0.463 0.168 1.083 -0.295 1.383 C 30.418 39.752 30.23 39.804 30.043 39.804 z" style="stroke: none; stroke-width: 1; stroke-dasharray: none; stroke-linecap: butt; stroke-linejoin: miter; stroke-miterlimit: 10; fill: #fff; fill-rule: nonzero; opacity: 1;" transform=" matrix(1 0 0 1 0 0) " stroke-linecap="round" />
	<path d="M 52.736 53.736 c -0.256 0 -0.512 -0.098 -0.707 -0.293 L 36.557 37.971 c -0.391 -0.391 -0.391 -1.023 0 -1.414 s 1.023 -0.391 1.414 0 l 15.473 15.473 c 0.391 0.391 0.391 1.023 0 1.414 C 53.248 53.639 52.992 53.736 52.736 53.736 z" style="stroke: none; stroke-width: 1; stroke-dasharray: none; stroke-linecap: butt; stroke-linejoin: miter; stroke-miterlimit: 10; fill: #fff; fill-rule: nonzero; opacity: 1;" transform=" matrix(1 0 0 1 0 0) " stroke-linecap="round" />
	<path d="M 37.264 53.736 c -0.256 0 -0.512 -0.098 -0.707 -0.293 c -0.391 -0.391 -0.391 -1.023 0 -1.414 l 15.473 -15.473 c 0.391 -0.391 1.023 -0.391 1.414 0 s 0.391 1.023 0 1.414 L 37.971 53.443 C 37.775 53.639 37.52 53.736 37.264 53.736 z" style="stroke: none; stroke-width: 1; stroke-dasharray: none; stroke-linecap: butt; stroke-linejoin: miter; stroke-miterlimit: 10; fill: #fff; fill-rule: nonzero; opacity: 1;" transform=" matrix(1 0 0 1 0 0) " stroke-linecap="round" />
</g>
</svg>